<svg width="234" height="234" viewBox="0 0 234 234" fill="none" xmlns="http://www.w3.org/2000/svg">
<path d="M234 214.77C232.264 208.52 230.18 202.269 228.444 195.672C217.332 156.78 206.22 117.889 195.109 78.9978C194.067 74.8308 192.331 73.4418 188.164 73.4418C165.246 73.0946 144.411 65.8025 124.618 55.0379C122.882 53.9962 121.146 52.9545 119.41 51.9127C116.979 50.5237 114.548 50.871 112.812 52.6072C112.465 52.9545 111.77 53.6489 111.423 53.9962C91.9773 73.0946 73.2261 92.193 54.1277 111.291C50.6552 114.764 50.308 116.847 52.7387 121.014C61.4198 135.599 68.0174 150.877 71.1426 167.545C72.5316 174.143 72.8788 181.087 73.2261 187.685C73.5733 192.547 74.6151 194.283 79.1292 195.324C123.576 208.172 168.371 220.673 212.818 233.521C216.638 234.563 219.069 233.869 220.457 231.785C222.194 229.354 221.846 226.576 219.069 224.146C212.818 218.243 206.915 212.687 200.665 206.784C184.344 191.158 167.676 175.879 151.356 160.253C147.884 157.128 144.411 156.433 139.897 156.433C131.563 156.78 124.965 151.572 123.229 143.238C121.146 134.557 127.396 125.528 136.424 123.792C145.106 122.056 153.787 128.306 155.523 136.987C155.87 138.724 155.87 140.46 155.87 141.849C155.523 145.669 156.912 148.794 159.343 151.919C180.872 173.795 202.054 196.366 223.235 218.937C227.402 223.451 231.222 222.757 234 217.548C234 216.506 234 215.465 234 214.77Z" fill="#009963"/>
<path d="M34.6818 111.292C39.5432 111.292 43.0157 109.555 46.1409 106.43C66.281 86.2901 86.0739 66.4972 106.214 46.3571C112.464 40.1067 112.464 31.0783 106.214 24.4807C99.6164 17.8831 93.0188 11.2854 86.4212 4.68779C80.1708 -1.5626 70.7952 -1.5626 64.5448 4.68779C44.4046 24.8279 24.6117 44.9681 4.81885 64.761C-1.77879 71.3586 -1.43154 80.387 4.81885 86.9846C11.0692 93.5822 17.6669 100.18 24.2645 106.43C27.3897 109.903 31.2094 111.292 34.6818 111.292Z" fill="#009963"/>
</svg>
