<svg width="814" height="133" viewBox="0 0 814 133" fill="none" xmlns="http://www.w3.org/2000/svg">
<path d="M125 121.377C124.073 117.844 122.96 114.312 122.032 110.583C116.096 88.604 110.161 66.6247 104.225 44.6454C103.668 42.2905 102.741 41.5055 100.515 41.5055C88.2723 41.3092 77.1427 37.1881 66.5695 31.1046C65.642 30.5158 64.7146 29.9271 63.7871 29.3384C62.4887 28.5534 61.1902 28.7496 60.2627 29.7309C60.0772 29.9271 59.7063 30.3196 59.5208 30.5158C49.1331 41.3092 39.1165 52.1026 28.9143 62.8961C27.0594 64.8585 26.8739 66.036 28.1723 68.3909C32.8097 76.6331 36.3341 85.2678 38.0035 94.6875C38.7455 98.4162 38.931 102.341 39.1165 106.07C39.302 108.817 39.8584 109.798 42.2699 110.387C66.013 117.648 89.9417 124.713 113.685 131.974C115.725 132.563 117.024 132.17 117.766 130.993C118.693 129.619 118.508 128.049 117.024 126.675C113.685 123.339 110.531 120.199 107.193 116.863C98.4744 108.032 89.5707 99.3974 80.8525 90.5664C78.9976 88.8002 77.1427 88.4077 74.7312 88.4077C70.2794 88.604 66.755 85.6603 65.8275 80.9505C64.7146 76.0444 68.0535 70.942 72.8763 69.9608C77.5136 68.9796 82.151 72.512 83.0784 77.4181C83.2639 78.3993 83.2639 79.3805 83.2639 80.1655C83.0784 82.3242 83.8204 84.0904 85.1189 85.8566C96.6195 98.2199 107.935 110.976 119.25 123.732C121.476 126.283 123.516 125.89 125 122.947C125 122.358 125 121.769 125 121.377Z" fill="#009963"/>
<path d="M18.5266 62.8961C21.1236 62.8961 22.9785 61.9149 24.6479 60.1487C35.4066 48.7666 45.9797 37.5807 56.7383 26.1985C60.0772 22.6662 60.0772 17.5638 56.7383 13.8352C53.214 10.1066 49.6896 6.37792 46.1652 2.64929C42.8263 -0.883097 37.818 -0.883097 34.4791 2.64929C23.7205 14.0314 13.1473 25.4136 2.57419 36.5995C-0.950187 40.3281 -0.764693 45.4304 2.57419 49.1591C5.91308 52.8877 9.43745 56.6163 12.9618 60.1487C14.6313 62.1111 16.6717 62.8961 18.5266 62.8961Z" fill="#009963"/>
<path d="M207.579 36H233.641V109.216H219.046V45.0838L219.344 45.2823L205.047 109.216H184.892L170.347 45.1334L170.645 44.9845V109.216H156V36H182.062L195.416 101.919H194.126L207.579 36Z" fill="white"/>
<path d="M250.845 87.4747V77.2989H285.794L284.304 79.88C284.304 79.6153 284.304 79.3671 284.304 79.1355C284.304 78.8707 284.304 78.6225 284.304 78.3909C284.304 76.5047 283.857 74.7011 282.964 72.9804C282.07 71.2265 280.68 69.8035 278.794 68.7115C276.941 67.5863 274.558 67.0238 271.645 67.0238C268.733 67.0238 266.218 67.6525 264.1 68.91C262.015 70.1344 260.41 71.9049 259.284 74.2213C258.192 76.5377 257.646 79.334 257.646 82.6101C257.646 85.9855 258.176 88.8811 259.235 91.2968C260.327 93.6794 261.932 95.516 264.05 96.8066C266.201 98.0972 268.865 98.7425 272.043 98.7425C274.094 98.7425 275.865 98.5605 277.354 98.1965C278.844 97.7994 280.052 97.303 280.978 96.7073C281.938 96.1117 282.666 95.4498 283.163 94.7218C283.659 93.9938 283.957 93.2823 284.056 92.5874H299.247C299.048 94.8045 298.287 96.9886 296.963 99.1396C295.639 101.257 293.803 103.177 291.453 104.898C289.103 106.585 286.24 107.926 282.865 108.918C279.522 109.911 275.7 110.407 271.397 110.407C265.572 110.407 260.492 109.249 256.157 106.933C251.821 104.583 248.462 101.357 246.079 97.2534C243.697 93.1169 242.505 88.3516 242.505 82.9576C242.505 77.4974 243.713 72.7156 246.129 68.6122C248.578 64.4757 251.97 61.2658 256.306 58.9824C260.674 56.666 265.721 55.5078 271.447 55.5078C277.305 55.5078 282.368 56.6825 286.637 59.0321C290.907 61.3485 294.2 64.6081 296.516 68.8108C298.833 72.9804 299.991 77.8449 299.991 83.4043C299.991 84.2316 299.975 85.0258 299.942 85.787C299.909 86.5481 299.859 87.1107 299.793 87.4747H250.845Z" fill="white"/>
<path d="M341.024 109.216V88.8149C341.024 86.8625 341.024 85.1748 341.024 83.7518C341.024 82.2958 341.024 81.0879 341.024 80.1282C341.024 78.7715 340.942 77.4312 340.776 76.1075C340.644 74.7839 340.313 73.5595 339.783 72.4343C339.287 71.2761 338.509 70.3661 337.45 69.7042C336.391 69.0093 334.952 68.6618 333.131 68.6618C331.443 68.6618 329.987 69.0259 328.763 69.7539C327.538 70.4488 326.529 71.425 325.735 72.6825C324.973 73.9069 324.411 75.3299 324.047 76.9514C323.683 78.5398 323.501 80.211 323.501 81.9648L319.281 78.4902C319.281 74.0227 320.092 70.0683 321.713 66.6267C323.335 63.152 325.635 60.4385 328.614 58.486C331.625 56.5005 335.183 55.5078 339.287 55.5078C343.689 55.5078 347.114 56.4509 349.563 58.3371C352.045 60.1903 353.783 62.6722 354.776 65.7828C355.801 68.8604 356.314 72.2689 356.314 76.0083C356.314 77.4312 356.314 79.3506 356.314 81.7663C356.314 84.182 356.314 87.0776 356.314 90.4529V109.216H341.024ZM308.111 109.216V56.5005H323.501V109.216H308.111ZM373.789 109.216V88.8645C373.789 86.8459 373.789 85.1086 373.789 83.6525C373.789 82.1965 373.789 80.9886 373.789 80.029C373.789 78.5729 373.706 77.183 373.54 75.8594C373.375 74.5026 373.027 73.2782 372.498 72.1861C371.968 71.0941 371.174 70.2337 370.115 69.605C369.056 68.9762 367.616 68.6618 365.796 68.6618C364.108 68.6618 362.652 69.0259 361.428 69.7539C360.236 70.4488 359.26 71.4085 358.499 72.6329C357.738 73.8573 357.175 75.2472 356.811 76.8025C356.48 78.3578 356.314 79.9793 356.314 81.667L352.095 78.242C352.095 73.8407 352.889 69.9359 354.478 66.5274C356.099 63.1189 358.383 60.4385 361.328 58.486C364.307 56.5005 367.865 55.5078 372.002 55.5078C376.304 55.5078 379.696 56.4178 382.178 58.2378C384.694 60.0579 386.481 62.4902 387.54 65.5346C388.632 68.546 389.178 71.9214 389.178 75.6608C389.178 77.1499 389.178 79.0693 389.178 81.4188C389.178 83.7684 389.178 86.6308 389.178 90.0062V109.216H373.789Z" fill="white"/>
<path d="M425.619 110.358C419.927 110.358 414.913 109.183 410.577 106.834C406.242 104.484 402.85 101.257 400.401 97.1541C397.985 93.0176 396.777 88.2523 396.777 82.8583C396.777 77.4974 397.985 72.7653 400.401 68.6618C402.85 64.5253 406.242 61.3154 410.577 59.0321C414.913 56.7156 419.927 55.5574 425.619 55.5574C431.311 55.5574 436.325 56.7156 440.661 59.0321C444.996 61.3154 448.372 64.5253 450.788 68.6618C453.237 72.7653 454.461 77.4974 454.461 82.8583C454.461 88.2523 453.237 93.0176 450.788 97.1541C448.372 101.257 444.996 104.484 440.661 106.834C436.325 109.183 431.311 110.358 425.619 110.358ZM425.619 98.1468C428.3 98.1468 430.633 97.5181 432.619 96.2606C434.604 95.0031 436.143 93.2327 437.235 90.9493C438.328 88.6329 438.874 85.9359 438.874 82.8583C438.874 79.7808 438.328 77.1169 437.235 74.8666C436.143 72.5832 434.604 70.8294 432.619 69.605C430.633 68.3806 428.3 67.7684 425.619 67.7684C422.971 67.7684 420.638 68.3806 418.619 69.605C416.634 70.8294 415.095 72.5832 414.003 74.8666C412.911 77.1169 412.364 79.7808 412.364 82.8583C412.364 85.9359 412.911 88.6329 414.003 90.9493C415.095 93.2327 416.634 95.0031 418.619 96.2606C420.638 97.5181 422.971 98.1468 425.619 98.1468Z" fill="white"/>
<path d="M462.555 109.216V56.5005H477.994V74.668L474.817 72.6825C475.181 70.2006 475.843 67.9173 476.803 65.8325C477.763 63.7477 479.004 61.9442 480.526 60.4219C482.048 58.8666 483.852 57.6587 485.937 56.7983C488.055 55.938 490.471 55.5078 493.185 55.5078C495.303 55.5078 496.958 55.6732 498.149 56.0041C499.374 56.302 500.135 56.5336 500.433 56.6991L497.901 70.4984C497.603 70.333 496.941 70.0683 495.915 69.7042C494.889 69.3402 493.565 69.1582 491.944 69.1582C489.296 69.1582 487.079 69.605 485.292 70.4984C483.505 71.3919 482.065 72.5832 480.973 74.0724C479.914 75.5284 479.153 77.1499 478.689 78.9369C478.226 80.7239 477.994 82.5274 477.994 84.3475V109.216H462.555Z" fill="white"/>
<path d="M511.137 132C509.482 132 507.993 131.934 506.669 131.801C505.378 131.702 504.567 131.586 504.237 131.454V119.789C504.667 119.988 505.411 120.137 506.47 120.236C507.563 120.368 508.721 120.434 509.945 120.434C511.567 120.434 513.023 120.103 514.314 119.442C515.638 118.813 516.763 117.903 517.69 116.711C518.649 115.553 519.394 114.18 519.924 112.592L520.817 109.911L502.648 56.5005H518.683L530.15 99.7353H528.363L539.384 56.5005H555.22L537.1 111.847C535.743 116.017 534.072 119.607 532.086 122.618C530.1 125.63 527.453 127.946 524.143 129.568C520.834 131.189 516.498 132 511.137 132Z" fill="white"/>
<path d="M584.557 109.216V36H599.996V104.6L593.046 96.6577H627.25V109.216H584.557Z" fill="white"/>
<path d="M653.314 110.308C649.475 110.308 646.05 109.696 643.038 108.472C640.06 107.247 637.726 105.477 636.039 103.16C634.351 100.844 633.507 98.031 633.507 94.7218C633.507 90.9824 634.533 87.938 636.585 85.5884C638.637 83.2389 641.35 81.4519 644.726 80.2275C648.135 78.97 651.825 78.1427 655.796 77.7456C661.588 77.183 665.576 76.6701 667.76 76.2068C669.978 75.7435 671.086 74.9328 671.086 73.7746C671.086 73.7415 671.086 73.7084 671.086 73.6753C671.086 71.7229 670.143 70.1841 668.257 69.0589C666.403 67.9338 663.805 67.3712 660.463 67.3712C656.922 67.3712 654.208 68.0165 652.321 69.3071C650.468 70.5646 649.541 72.5005 649.541 75.1148H634.4C634.4 70.879 635.542 67.3051 637.826 64.393C640.142 61.4809 643.27 59.2802 647.208 57.7911C651.147 56.2689 655.598 55.5078 660.562 55.5078C665.195 55.5078 669.481 56.2192 673.42 57.6422C677.358 59.0321 680.518 61.1334 682.901 63.9462C685.317 66.759 686.525 70.333 686.525 74.668C686.525 75.363 686.525 76.0579 686.525 76.7528C686.525 77.4147 686.525 78.0931 686.525 78.788V97.4519C686.525 98.8087 686.558 100.116 686.624 101.373C686.724 102.598 686.922 103.723 687.22 104.749C687.551 105.907 687.965 106.867 688.461 107.628C688.958 108.389 689.371 108.918 689.702 109.216H674.561C674.33 108.984 673.966 108.505 673.469 107.777C673.006 107.049 672.609 106.205 672.278 105.245C671.881 104.087 671.583 102.929 671.384 101.77C671.219 100.579 671.136 99.1892 671.136 97.6008L674.313 99.7849C673.386 101.969 671.881 103.855 669.796 105.444C667.744 106.999 665.295 108.207 662.448 109.067C659.635 109.895 656.591 110.308 653.314 110.308ZM657.435 98.7921C659.851 98.7921 662.101 98.3619 664.186 97.5015C666.304 96.6081 668.025 95.2182 669.349 93.332C670.673 91.4457 671.334 88.9803 671.334 85.9359V80.6246L675.157 84.3475C672.973 85.1417 670.441 85.8035 667.562 86.333C664.715 86.8294 661.869 87.2265 659.023 87.5243C655.647 87.8552 653.116 88.4343 651.428 89.2616C649.773 90.0558 648.946 91.4126 648.946 93.332C648.946 95.152 649.657 96.5253 651.08 97.4519C652.503 98.3454 654.621 98.7921 657.435 98.7921Z" fill="white"/>
<path d="M733.509 109.216V86.8294C733.509 85.5719 733.509 84.4302 733.509 83.4043C733.509 82.3785 733.509 81.4519 733.509 80.6246C733.509 78.4405 733.227 76.455 732.665 74.668C732.102 72.848 731.093 71.3919 729.636 70.2999C728.18 69.2079 726.079 68.6618 723.332 68.6618C720.949 68.6618 718.88 69.2079 717.126 70.2999C715.405 71.3919 714.082 72.9142 713.155 74.8666C712.228 76.819 711.765 79.0693 711.765 81.6174L707.496 78.5398C707.496 73.9731 708.489 69.969 710.474 66.5274C712.46 63.0858 715.141 60.3888 718.516 58.4364C721.925 56.484 725.698 55.5078 729.835 55.5078C734.17 55.5078 737.728 56.3847 740.508 58.1386C743.321 59.8594 745.406 62.2751 746.763 65.3857C748.153 68.4633 748.848 72.0703 748.848 76.2068C748.848 77.8945 748.848 79.7808 748.848 81.8656C748.848 83.9504 748.848 86.0848 748.848 88.2689V109.216H733.509ZM696.376 109.216V56.5005H711.765V109.216H696.376Z" fill="white"/>
<path d="M764.854 87.4747V77.2989H799.802L798.313 79.88C798.313 79.6153 798.313 79.3671 798.313 79.1355C798.313 78.8707 798.313 78.6225 798.313 78.3909C798.313 76.5047 797.866 74.7011 796.973 72.9804C796.079 71.2265 794.689 69.8035 792.803 68.7115C790.949 67.5863 788.566 67.0238 785.654 67.0238C782.742 67.0238 780.226 67.6525 778.108 68.91C776.023 70.1344 774.418 71.9049 773.293 74.2213C772.201 76.5377 771.655 79.334 771.655 82.6101C771.655 85.9855 772.184 88.8811 773.243 91.2968C774.336 93.6794 775.941 95.516 778.059 96.8066C780.21 98.0972 782.874 98.7425 786.051 98.7425C788.103 98.7425 789.874 98.5605 791.363 98.1965C792.852 97.7994 794.06 97.303 794.987 96.7073C795.947 96.1117 796.675 95.4498 797.171 94.7218C797.668 93.9938 797.965 93.2823 798.065 92.5874H813.255C813.057 94.8045 812.296 96.9886 810.972 99.1396C809.648 101.257 807.811 103.177 805.461 104.898C803.112 106.585 800.249 107.926 796.873 108.918C793.531 109.911 789.708 110.407 785.406 110.407C779.581 110.407 774.501 109.249 770.165 106.933C765.83 104.583 762.471 101.357 760.088 97.2534C757.705 93.1169 756.514 88.3516 756.514 82.9576C756.514 77.4974 757.722 72.7156 760.138 68.6122C762.587 64.4757 765.979 61.2658 770.314 58.9824C774.683 56.666 779.73 55.5078 785.455 55.5078C791.313 55.5078 796.377 56.6825 800.646 59.0321C804.915 61.3485 808.208 64.6081 810.525 68.8108C812.842 72.9804 814 77.8449 814 83.4043C814 84.2316 813.983 85.0258 813.95 85.787C813.917 86.5481 813.868 87.1107 813.801 87.4747H764.854Z" fill="white"/>
</svg>
